<mxfile host="app.diagrams.net" modified="2023-06-16T12:51:48.184Z" agent="Mozilla/5.0 (Windows NT 10.0; Win64; x64) AppleWebKit/537.36 (KHTML, like Gecko) Chrome/114.0.0.0 Safari/537.36" etag="l_iJRqhkSbSN_nJqsR0W" version="21.3.4" type="github">
  <diagram name="Sayfa -1" id="vNr3KaKzx_Gk48ePvgUT">
    <mxGraphModel dx="1290" dy="541" grid="1" gridSize="10" guides="1" tooltips="1" connect="1" arrows="1" fold="1" page="1" pageScale="1" pageWidth="827" pageHeight="1169" math="0" shadow="0">
      <root>
        <mxCell id="0" />
        <mxCell id="1" parent="0" />
        <mxCell id="GQ6akk6m_RY6Cyng8-RC-3" style="edgeStyle=orthogonalEdgeStyle;rounded=0;orthogonalLoop=1;jettySize=auto;html=1;exitX=0.5;exitY=1;exitDx=0;exitDy=0;" edge="1" parent="1" source="GQ6akk6m_RY6Cyng8-RC-1">
          <mxGeometry relative="1" as="geometry">
            <mxPoint x="250" y="190" as="targetPoint" />
          </mxGeometry>
        </mxCell>
        <mxCell id="GQ6akk6m_RY6Cyng8-RC-1" value="" style="rounded=1;whiteSpace=wrap;html=1;" vertex="1" parent="1">
          <mxGeometry x="190" y="50" width="120" height="60" as="geometry" />
        </mxCell>
        <mxCell id="GQ6akk6m_RY6Cyng8-RC-4" value="IDLE" style="text;html=1;align=center;verticalAlign=middle;resizable=0;points=[];autosize=1;strokeColor=none;fillColor=none;" vertex="1" parent="1">
          <mxGeometry x="395" y="58" width="50" height="30" as="geometry" />
        </mxCell>
        <mxCell id="GQ6akk6m_RY6Cyng8-RC-6" value="LOAD" style="text;html=1;align=center;verticalAlign=middle;resizable=0;points=[];autosize=1;strokeColor=none;fillColor=none;" vertex="1" parent="1">
          <mxGeometry x="390" y="308" width="60" height="30" as="geometry" />
        </mxCell>
        <mxCell id="GQ6akk6m_RY6Cyng8-RC-9" value="F" style="edgeStyle=orthogonalEdgeStyle;rounded=0;orthogonalLoop=1;jettySize=auto;html=1;exitX=0;exitY=0.5;exitDx=0;exitDy=0;entryX=0;entryY=0.5;entryDx=0;entryDy=0;" edge="1" parent="1" source="GQ6akk6m_RY6Cyng8-RC-7" target="GQ6akk6m_RY6Cyng8-RC-1">
          <mxGeometry relative="1" as="geometry" />
        </mxCell>
        <mxCell id="GQ6akk6m_RY6Cyng8-RC-14" value="T" style="edgeStyle=orthogonalEdgeStyle;rounded=0;orthogonalLoop=1;jettySize=auto;html=1;exitX=0.5;exitY=1;exitDx=0;exitDy=0;entryX=0.5;entryY=0;entryDx=0;entryDy=0;" edge="1" parent="1" source="GQ6akk6m_RY6Cyng8-RC-7" target="GQ6akk6m_RY6Cyng8-RC-11">
          <mxGeometry relative="1" as="geometry" />
        </mxCell>
        <mxCell id="GQ6akk6m_RY6Cyng8-RC-7" value="Load" style="rhombus;whiteSpace=wrap;html=1;fillColor=#FFD966;" vertex="1" parent="1">
          <mxGeometry x="210" y="190" width="80" height="80" as="geometry" />
        </mxCell>
        <mxCell id="GQ6akk6m_RY6Cyng8-RC-18" style="edgeStyle=orthogonalEdgeStyle;rounded=0;orthogonalLoop=1;jettySize=auto;html=1;exitX=0.5;exitY=1;exitDx=0;exitDy=0;entryX=0.5;entryY=0;entryDx=0;entryDy=0;" edge="1" parent="1" source="GQ6akk6m_RY6Cyng8-RC-11" target="GQ6akk6m_RY6Cyng8-RC-17">
          <mxGeometry relative="1" as="geometry" />
        </mxCell>
        <mxCell id="GQ6akk6m_RY6Cyng8-RC-11" value="Wreg" style="rounded=0;whiteSpace=wrap;html=1;fillColor=#EA6B66;" vertex="1" parent="1">
          <mxGeometry x="190" y="320" width="120" height="60" as="geometry" />
        </mxCell>
        <mxCell id="GQ6akk6m_RY6Cyng8-RC-21" value="F" style="edgeStyle=orthogonalEdgeStyle;rounded=0;orthogonalLoop=1;jettySize=auto;html=1;" edge="1" parent="1" source="GQ6akk6m_RY6Cyng8-RC-17" target="GQ6akk6m_RY6Cyng8-RC-20">
          <mxGeometry relative="1" as="geometry" />
        </mxCell>
        <mxCell id="GQ6akk6m_RY6Cyng8-RC-23" value="T" style="edgeStyle=orthogonalEdgeStyle;rounded=0;orthogonalLoop=1;jettySize=auto;html=1;exitX=0;exitY=0.5;exitDx=0;exitDy=0;entryX=0;entryY=0.5;entryDx=0;entryDy=0;" edge="1" parent="1" source="GQ6akk6m_RY6Cyng8-RC-17" target="GQ6akk6m_RY6Cyng8-RC-11">
          <mxGeometry relative="1" as="geometry" />
        </mxCell>
        <mxCell id="GQ6akk6m_RY6Cyng8-RC-17" value="Load" style="rhombus;whiteSpace=wrap;html=1;fillColor=#FFD966;" vertex="1" parent="1">
          <mxGeometry x="210" y="420" width="80" height="80" as="geometry" />
        </mxCell>
        <mxCell id="GQ6akk6m_RY6Cyng8-RC-25" style="edgeStyle=orthogonalEdgeStyle;rounded=0;orthogonalLoop=1;jettySize=auto;html=1;exitX=0.5;exitY=1;exitDx=0;exitDy=0;entryX=0.5;entryY=0;entryDx=0;entryDy=0;" edge="1" parent="1" source="GQ6akk6m_RY6Cyng8-RC-20" target="GQ6akk6m_RY6Cyng8-RC-24">
          <mxGeometry relative="1" as="geometry" />
        </mxCell>
        <mxCell id="GQ6akk6m_RY6Cyng8-RC-20" value="Dval" style="rounded=0;whiteSpace=wrap;html=1;fillColor=#EA6B66;" vertex="1" parent="1">
          <mxGeometry x="190" y="550" width="120" height="60" as="geometry" />
        </mxCell>
        <mxCell id="GQ6akk6m_RY6Cyng8-RC-22" value="WAIT" style="text;html=1;align=center;verticalAlign=middle;resizable=0;points=[];autosize=1;strokeColor=none;fillColor=none;" vertex="1" parent="1">
          <mxGeometry x="395" y="555" width="50" height="30" as="geometry" />
        </mxCell>
        <mxCell id="GQ6akk6m_RY6Cyng8-RC-28" value="T" style="edgeStyle=orthogonalEdgeStyle;rounded=0;orthogonalLoop=1;jettySize=auto;html=1;exitX=0.5;exitY=1;exitDx=0;exitDy=0;entryX=0.5;entryY=0;entryDx=0;entryDy=0;" edge="1" parent="1" source="GQ6akk6m_RY6Cyng8-RC-24" target="GQ6akk6m_RY6Cyng8-RC-27">
          <mxGeometry relative="1" as="geometry" />
        </mxCell>
        <mxCell id="GQ6akk6m_RY6Cyng8-RC-30" value="F" style="edgeStyle=orthogonalEdgeStyle;rounded=0;orthogonalLoop=1;jettySize=auto;html=1;exitX=0;exitY=0.5;exitDx=0;exitDy=0;entryX=0;entryY=0.5;entryDx=0;entryDy=0;" edge="1" parent="1" source="GQ6akk6m_RY6Cyng8-RC-24" target="GQ6akk6m_RY6Cyng8-RC-20">
          <mxGeometry relative="1" as="geometry" />
        </mxCell>
        <mxCell id="GQ6akk6m_RY6Cyng8-RC-24" value="ACK" style="rhombus;whiteSpace=wrap;html=1;fillColor=#FFD966;" vertex="1" parent="1">
          <mxGeometry x="210" y="670" width="80" height="80" as="geometry" />
        </mxCell>
        <mxCell id="GQ6akk6m_RY6Cyng8-RC-33" value="" style="edgeStyle=orthogonalEdgeStyle;rounded=0;orthogonalLoop=1;jettySize=auto;html=1;" edge="1" parent="1" source="GQ6akk6m_RY6Cyng8-RC-27" target="GQ6akk6m_RY6Cyng8-RC-32">
          <mxGeometry relative="1" as="geometry" />
        </mxCell>
        <mxCell id="GQ6akk6m_RY6Cyng8-RC-27" value="OBfree" style="rounded=0;whiteSpace=wrap;html=1;fillColor=#EA6B66;" vertex="1" parent="1">
          <mxGeometry x="190" y="800" width="120" height="60" as="geometry" />
        </mxCell>
        <mxCell id="GQ6akk6m_RY6Cyng8-RC-29" value="ACCEPT" style="text;html=1;align=center;verticalAlign=middle;resizable=0;points=[];autosize=1;strokeColor=none;fillColor=none;" vertex="1" parent="1">
          <mxGeometry x="390" y="800" width="70" height="30" as="geometry" />
        </mxCell>
        <mxCell id="GQ6akk6m_RY6Cyng8-RC-34" value="F" style="edgeStyle=orthogonalEdgeStyle;rounded=0;orthogonalLoop=1;jettySize=auto;html=1;exitX=0;exitY=0.5;exitDx=0;exitDy=0;entryX=0.007;entryY=0.37;entryDx=0;entryDy=0;entryPerimeter=0;" edge="1" parent="1" source="GQ6akk6m_RY6Cyng8-RC-32" target="GQ6akk6m_RY6Cyng8-RC-1">
          <mxGeometry relative="1" as="geometry">
            <Array as="points">
              <mxPoint x="100" y="970" />
              <mxPoint x="100" y="72" />
            </Array>
          </mxGeometry>
        </mxCell>
        <mxCell id="GQ6akk6m_RY6Cyng8-RC-35" value="T" style="edgeStyle=orthogonalEdgeStyle;rounded=0;orthogonalLoop=1;jettySize=auto;html=1;exitX=1;exitY=0.5;exitDx=0;exitDy=0;entryX=1;entryY=0.5;entryDx=0;entryDy=0;" edge="1" parent="1" source="GQ6akk6m_RY6Cyng8-RC-32" target="GQ6akk6m_RY6Cyng8-RC-27">
          <mxGeometry relative="1" as="geometry">
            <Array as="points">
              <mxPoint x="340" y="970" />
              <mxPoint x="340" y="830" />
            </Array>
          </mxGeometry>
        </mxCell>
        <mxCell id="GQ6akk6m_RY6Cyng8-RC-32" value="ACK" style="rhombus;whiteSpace=wrap;html=1;rounded=0;fillColor=#FFD966;" vertex="1" parent="1">
          <mxGeometry x="210" y="930" width="80" height="80" as="geometry" />
        </mxCell>
      </root>
    </mxGraphModel>
  </diagram>
</mxfile>
